<?xml version="1.0" encoding="utf-8"?>
<!-- Generator: Adobe Illustrator 19.2.1, SVG Export Plug-In . SVG Version: 6.00 Build 0)  -->
<svg version="1.1" id="EGL" xmlns="http://www.w3.org/2000/svg" xmlns:xlink="http://www.w3.org/1999/xlink" x="0px" y="0px"
	 viewBox="0 0 1000 500" enable-background="new 0 0 1000 500" xml:space="preserve">
<g id="EGL_1_">
	<g>
		<path fill="#AE1116" d="M454.574,173.726H335.365v47.247h109.508v39.733H335.365V318.9h124.527v39.736H289.375V133.993h165.199
			V173.726z"/>
		<path fill="#AE1116" d="M586.283,237.554h93.863v121.083h-31.289l-4.691-28.16c-11.892,13.767-29.099,34.105-70.086,34.105
			c-54.127,0-103.249-38.797-103.249-117.642c0-61.011,33.79-118.893,109.194-118.893h0.625c68.834,0,96.052,44.743,98.557,75.716
			h-46.933c0-8.763-15.956-36.919-49.12-36.919c-33.479,0-64.454,23.152-64.454,80.72c0,61.326,33.477,77.282,65.394,77.282
			c10.322,0,44.74-4.067,54.438-49.435h-52.249V237.554z"/>
		<path fill="#AE1116" d="M753.971,317.961h111.697v40.676H707.041V133.993h46.93V317.961z"/>
	</g>
	<path fill="#AE1116" d="M748.148,375.281c-48.309,27.374-165.566,64.96-304.109,46.136
		c-173.408-23.583-246.52-84.436-246.52-171.857c0-87.424,86.602-153.846,246.52-170.982
		C576.447,64.38,694.3,95.325,744.498,121.184H746c-32.723-26.164-135.224-95.312-305.375-96.176
		C230.729,23.934,64.22,136.424,65.226,249.988C64.22,363.551,230.729,476.047,440.625,474.992
		c178.553-0.912,282.574-76.997,309.674-99.711H748.148z"/>
</g>
<g id="TM_2_" enable-background="new    ">
	<path fill="#AE1116" d="M904.791,339.736h-7.268v18.9h-6.346v-18.9h-7.266v-5.459h20.879V339.736z"/>
	<path fill="#AE1116" d="M907.623,334.277h9.348l4.195,16.239h0.068l4.197-16.239h9.348v24.359h-5.971v-18.491h-0.068l-5.117,18.491
		h-4.844l-5.119-18.491h-0.068v18.491h-5.969V334.277z"/>
</g>
</svg>
