<?xml version="1.0" encoding="utf-8"?>
<!-- Generator: Adobe Illustrator 19.2.1, SVG Export Plug-In . SVG Version: 6.00 Build 0)  -->
<svg version="1.1" id="Layer_1" xmlns="http://www.w3.org/2000/svg" xmlns:xlink="http://www.w3.org/1999/xlink" x="0px" y="0px"
	 viewBox="0 0 717.6 418.6" style="enable-background:new 0 0 717.6 418.6;" xml:space="preserve">
<style type="text/css">
	.st0{fill:#FFFFFF;}
</style>
<path class="st0" d="M682.8,189.2c-2.4-0.5-4.9-0.7-7.3-0.4c-1.2,0.1-2.4,0.4-3.6,0.8c-0.9,0.3-1.7,0.8-2.5,1.4
	c-1.1,0.9-1.9,2-2.1,3.5c-0.1,1.2,0.3,2.3,1,3.3c0.9,1.1,2.2,1.8,3.4,2.4c1.2,0.5,2.4,0.9,3.6,1.2c1.4,0.4,2.9,0.7,4.3,1
	c3.3,0.7,6.6,1.5,9.7,2.7c5.6,2.2,10.9,5.9,13.1,12.1c0.9,2.6,1.2,5.4,0.8,8.2c-0.5,3.3-1.8,6.5-3.9,9.2c-1.6,2.1-3.5,3.8-5.8,5.1
	c-3.1,1.8-6.5,2.9-10,3.5c-2.7,0.5-5.4,0.6-8.2,0.5c-3.4-0.1-6.7-0.7-10-1.6c-6-1.7-11.4-4.6-16.1-8.6c2.7-3.6,5.3-7.1,8-10.7
	c3,2.3,6.1,4.1,9.6,5.4c2.3,0.9,4.6,1.4,7.1,1.7c2.2,0.3,4.5,0.3,6.7,0.1c1.6-0.2,3.2-0.6,4.6-1.3c1.1-0.5,2.1-1.3,2.9-2.3
	c0.6-0.8,1.1-1.8,1.2-2.9c0.1-1.1-0.2-2.2-0.7-3.2c-0.7-1.1-1.7-2-2.8-2.7c-1.4-0.9-3.1-1.4-4.6-1.9c-1.9-0.6-3.9-1-5.9-1.4
	c-5.6-1.2-12.2-2.7-16.9-6.8c-2.2-1.9-3.9-4.4-4.8-7.2c-1-3.1-1-6.4-0.1-9.5c0.7-2.5,1.9-4.8,3.5-6.8c2.3-2.8,5.2-4.8,8.5-6.2
	c2.5-1,5-1.7,7.7-2c3.4-0.5,6.9-0.4,10.3,0.1c6.1,0.9,11.8,3.3,16.8,6.9c-2.5,3.4-5,6.9-7.5,10.3C689.8,191.4,686.4,190,682.8,189.2
	z M559.3,144.6h-15v97.3h15V144.6z M636.9,241.9c0-21,0-42,0-63c-5,0-10,0-15,0c0,4,0,25.7,0,29.8c0,1.7,0,3.5-0.1,5.2
	c-0.1,1.1-0.2,2.2-0.4,3.3c-0.4,2.1-1.1,4.1-2.2,5.9c-2.8,4.4-7.7,6.5-12.7,6.6c-5.1,0.1-9.9-2-12.6-6.5c-1.1-1.8-1.7-3.8-2.1-5.9
	c-0.5-2.8-0.7-5.7-0.7-8.5c0-1.8-0.1-3.7-0.1-5.5c0-3.1,0-6.2,0-9.4c0-5,0-9.9,0-14.9c-5,0-10,0-15,0c0,5.1,0,20.4,0,25.5
	c0,2.5,0,4.9,0.1,7.4c0.1,1.8,0.1,3.6,0.3,5.4c0.4,4.3,1.2,8.4,3.1,12.3c4,8,11.7,12.6,20.3,13.6c4.2,0.5,8.6,0.1,12.6-1.1
	c3.9-1.2,8.1-3.2,11-6.2c0.1,2,0.3,4,0.4,6.1C628.2,241.9,632.5,241.9,636.9,241.9z M456.3,233.8c-3.4-3.5-6.9-7.1-10.3-10.6
	c-2.7,2.5-5.9,4.2-9.5,4.9c-3.5,0.8-7.2,0.7-10.7-0.4c-3.5-1.1-6.4-3.3-8.6-6.3c-2.1-3-3.2-6.5-3.4-10.1c-0.2-3.5,0.5-7.3,2.2-10.4
	c1.8-3.3,4.4-5.7,7.8-7.1c1.5-0.6,3-1.1,4.5-1.3c2-0.3,4-0.4,6-0.1c3.6,0.4,7,1.8,10,3.7c3-3.8,6-7.7,9.1-11.5
	c-5.2-4.1-11.1-6.5-17.7-7.2c-6.4-0.7-13.1,0.3-18.9,3.1c-6,2.8-10.7,7.3-13.8,13.2c-3.1,5.7-4.3,12.3-4,18.8
	c0.3,6.4,2.2,12.9,6,18.2c3.8,5.4,9.1,9.3,15.3,11.4c6.1,2.1,12.9,2.4,19.2,1.1C445.8,241.6,451.7,238.5,456.3,233.8z M526.6,241.9
	c0-21,0-42,0-63c-5,0-10,0-15,0c0,4,0,25.7,0,29.8c0,1.7,0,3.5-0.1,5.2c-0.1,1.1-0.2,2.2-0.4,3.3c-0.4,2.1-1.1,4.1-2.2,5.9
	c-2.8,4.4-7.7,6.5-12.7,6.6c-5.1,0.1-9.9-2-12.6-6.5c-1.1-1.8-1.7-3.8-2.1-5.9c-0.5-2.8-0.7-5.7-0.7-8.5c0-1.8-0.1-3.7-0.1-5.5
	c0-3.1,0-6.2,0-9.4c0-5,0-9.9,0-14.9c-5,0-10,0-15,0c0,5.1,0,20.4,0,25.5c0,2.5,0,4.9,0.1,7.4c0.1,1.8,0.1,3.6,0.3,5.4
	c0.4,4.3,1.2,8.4,3.1,12.3c4,8,11.7,12.6,20.3,13.6c4.2,0.5,8.6,0.1,12.6-1.1c3.9-1.2,8.1-3.2,11-6.2c0.1,2,0.3,4,0.4,6.1
	C517.8,241.9,522.2,241.9,526.6,241.9z M387.9,210.5c0,8.7-3.2,17.2-9.4,23.5c-6.2,6.2-14.7,9.5-23.4,9.5c-8.7,0-17.2-3.3-23.3-9.6
	c-6.2-6.3-9.3-14.8-9.2-23.5c0-8.7,3.2-17.2,9.4-23.5c6.2-6.2,14.7-9.5,23.4-9.5c8.7,0,17.2,3.3,23.3,9.6
	C384.8,193.3,387.9,201.8,387.9,210.5z M373.1,210.4c0-1.3-0.1-2.6-0.3-3.8c-0.2-1.2-0.6-2.4-1-3.6c-0.4-1.1-1-2.1-1.6-3.1
	c-0.6-0.9-1.3-1.8-2.1-2.6c-0.8-0.8-1.7-1.5-2.6-2.1c-1-0.6-2-1.2-3.1-1.6c-1.1-0.5-2.3-0.8-3.5-1c-1.2-0.2-2.5-0.4-3.7-0.4
	s-2.5,0.1-3.7,0.3c-1.2,0.2-2.4,0.6-3.5,1c-1.1,0.4-2.1,1-3.1,1.6c-0.9,0.6-1.8,1.3-2.6,2.1c-0.8,0.8-1.5,1.7-2.1,2.6
	c-0.6,1-1.2,2-1.6,3.1c-0.5,1.1-0.8,2.3-1,3.6c-0.2,1.3-0.4,2.5-0.4,3.8s0.1,2.6,0.3,3.8c0.2,1.2,0.6,2.4,1,3.6
	c0.4,1.1,1,2.1,1.6,3.1c0.6,0.9,1.3,1.8,2.1,2.6c0.8,0.8,1.7,1.5,2.6,2.1c1,0.6,2,1.2,3.1,1.6c1.1,0.5,2.3,0.8,3.5,1
	c1.2,0.2,2.5,0.4,3.7,0.4c1.2,0,2.5-0.1,3.7-0.3c1.2-0.2,2.4-0.6,3.5-1c1.1-0.4,2.1-1,3.1-1.6c0.9-0.6,1.8-1.3,2.6-2.1
	c0.8-0.8,1.5-1.7,2.1-2.6c0.6-1,1.2-2,1.6-3.1c0.5-1.1,0.8-2.3,1-3.6C373,213,373.1,211.7,373.1,210.4z M260.3,209.3
	c0,22.3-10.1,43.4-27.5,57.3c-8.6,6.9-18.5,11.7-29.3,14.3c-6.2,1.5-12.3,2.1-18.7,2.4c-4.7,0.2-9.4,0.1-14,0.1
	c-22.2,0-44.4,0-66.5,0c-4.7,0-9.4,0-14-0.1c-6.3-0.2-12.5-0.9-18.7-2.3c-10.8-2.6-20.7-7.4-29.3-14.3c-17.4-14-27.5-35-27.5-57.3
	c0-22.3,10.1-43.4,27.5-57.3c8.6-6.9,18.5-11.7,29.3-14.3c6.2-1.5,12.3-2.1,18.7-2.4c4.7-0.2,9.4-0.1,14-0.1c22.2,0,44.4,0,66.5,0
	c4.7,0,9.4,0,14,0.1c6.3,0.2,12.5,0.9,18.7,2.3c10.8,2.6,20.7,7.4,29.3,14.3C250.2,165.9,260.3,187,260.3,209.3z M210.8,209.3
	c0-8-3.9-15.4-10.5-20c-3.3-2.3-6.9-3.6-10.8-4.3c-3.9-0.6-7.8-0.5-11.7-0.5c-26.8,0-53.7,0-80.5,0c-3.9,0-7.8-0.1-11.7,0.5
	c-3.9,0.6-7.5,2-10.8,4.3c-6.6,4.5-10.5,11.9-10.5,19.9c0,8,3.9,15.4,10.5,20c3.3,2.3,6.9,3.6,10.8,4.3c3.9,0.6,7.8,0.5,11.7,0.5
	c26.8,0,53.7,0,80.5,0c3.9,0,7.8,0.1,11.7-0.5c3.9-0.6,7.5-2,10.8-4.3C206.9,224.7,210.8,217.3,210.8,209.3z"/>
</svg>
