<svg id="Vulkan" xmlns="http://www.w3.org/2000/svg" viewBox="0 0 1119.57 296.81"><defs><style>.cls-1{isolation:isolate;}.cls-2{fill:#a41e22;}</style></defs><title>Vulkan_RGB_May16</title><g id="TM" class="cls-1"><path class="cls-2" d="M1191.59,366.19h-7.35v19.11h-6.42V366.19h-7.35v-5.52h21.11v5.52h0Z" transform="translate(-102.35 -91.97)"/><path class="cls-2" d="M1194.45,360.67h9.45l4.24,16.42h0.07l4.24-16.42h9.45v24.63h-6v-18.7h-0.07l-5.18,18.7h-4.9l-5.18-18.7h-0.07v18.7h-6V360.67h0Z" transform="translate(-102.35 -91.97)"/></g><path class="cls-2" d="M724.1,385.06H683.52V255.4c13,7.22,30.09,20.54,40.57,33.32v96.34Z" transform="translate(-102.35 -91.97)"/><path class="cls-2" d="M381.75,385.06H331.18l-66-204h46l45.44,143.45h0.57l46-143.45h46.29Z" transform="translate(-102.35 -91.97)"/><path class="cls-2" d="M585.51,385.06H546.93V364.49h-0.85q-7.72,12.86-20,18.58a59,59,0,0,1-25.15,5.71q-16.29,0-26.72-4.28a38.52,38.52,0,0,1-16.43-12.14,47.58,47.58,0,0,1-8.44-19.15,119.47,119.47,0,0,1-2.42-25V237.33h40.58v83.44q0,18.29,5.72,27.29t20.29,9q16.57,0,24-9.86t7.43-32.44V237.33h40.59V385.06Z" transform="translate(-102.35 -91.97)"/><polygon class="cls-2" points="628.5 204.22 628.4 198.5 679.55 145.36 727.56 145.36 671.84 199.66 733.85 293.1 684.69 293.1 628.5 204.22"/><path class="cls-2" d="M843.62,282.76q0.86-14.29,7.15-23.72a48.59,48.59,0,0,1,16-15.14,69.71,69.71,0,0,1,21.87-8.14,124.31,124.31,0,0,1,24.43-2.43,165.85,165.85,0,0,1,22.57,1.57A69.06,69.06,0,0,1,956.49,241a41.28,41.28,0,0,1,15.44,12.71q6,8.15,6,21.58V352.2a154.93,154.93,0,0,0,1.14,19.15q1.15,9.16,4,13.72H941.92a60,60,0,0,1-1.86-7,60.78,60.78,0,0,1-1-7.29,52.88,52.88,0,0,1-22.87,14,91.87,91.87,0,0,1-26.86,4,72.73,72.73,0,0,1-19.71-2.57,45.08,45.08,0,0,1-16-8,37.18,37.18,0,0,1-10.72-13.72Q839,356.2,839,344.78q0-12.58,4.43-20.72a37.07,37.07,0,0,1,11.44-13,51.16,51.16,0,0,1,16-7.29,171.39,171.39,0,0,1,18.14-3.86q9.15-1.42,18-2.28a108.67,108.67,0,0,0,15.71-2.57,27.37,27.37,0,0,0,10.86-5c2.68-2.19,3.91-5.38,3.72-9.57,0-4.38-.72-7.86-2.15-10.43a15.74,15.74,0,0,0-5.71-6,22.44,22.44,0,0,0-8.29-2.86,67.47,67.47,0,0,0-10.14-.72q-12,0-18.86,5.15t-8,17.15H843.62Zm93.74,30a18.14,18.14,0,0,1-6.43,3.57,64.33,64.33,0,0,1-8.29,2.15q-4.42.85-9.28,1.43t-9.72,1.43a74.3,74.3,0,0,0-9,2.28,26.72,26.72,0,0,0-7.72,3.86,18.46,18.46,0,0,0-5.29,6.14,19.8,19.8,0,0,0-2,9.43,19.1,19.1,0,0,0,2,9.14,15.36,15.36,0,0,0,5.43,5.86,23,23,0,0,0,8,3,51.46,51.46,0,0,0,9.43.85q12,0,18.58-4a26.72,26.72,0,0,0,9.71-9.58,30.36,30.36,0,0,0,3.85-11.28,78.58,78.58,0,0,0,.72-9.14V312.77Z" transform="translate(-102.35 -91.97)"/><path class="cls-2" d="M1004.21,237.33h38.59V257.9h0.85q7.71-12.86,20-18.71a57.77,57.77,0,0,1,25.14-5.86q16.3,0,26.73,4.43A39.71,39.71,0,0,1,1132,250a47.62,47.62,0,0,1,8.43,19.14,118.84,118.84,0,0,1,2.43,25v90.87h-40.57V301.62q0-18.29-5.71-27.29t-20.3-9q-16.57,0-24,9.86t-7.43,32.43v77.44h-40.58V237.33Z" transform="translate(-102.35 -91.97)"/><path class="cls-2" d="M612.37,211.84V385.06h40.58V234.21C639.93,226.23,626.36,218.74,612.37,211.84Z" transform="translate(-102.35 -91.97)"/><path class="cls-2" d="M198.43,219.21C222,150.32,362.59,125,512.58,162.78c90,22.62,163.49,66.5,211.51,109.89C702.3,215.11,596.65,133.08,451.19,105,286.7,73.15,124.47,101.1,104.4,174.09c-14.5,52.73,49.18,114.5,147.66,156.74C207.81,295,186.29,254.78,198.43,219.21Z" transform="translate(-102.35 -91.97)"/><path class="cls-2" d="M724.16,247.62V181H683.58v20.22C700.88,216.71,714.61,232.45,724.16,247.62Z" transform="translate(-102.35 -91.97)"/></svg>